<mxfile host="65bd71144e">
    <diagram id="t85LeanfrtgodP0H237d" name="Page-1">
        <mxGraphModel dx="1072" dy="413" grid="1" gridSize="10" guides="1" tooltips="1" connect="1" arrows="1" fold="1" page="1" pageScale="1" pageWidth="827" pageHeight="1169" math="0" shadow="0">
            <root>
                <mxCell id="0"/>
                <mxCell id="1" parent="0"/>
                <mxCell id="5" value="" style="edgeStyle=none;html=1;" edge="1" parent="1" source="3" target="4">
                    <mxGeometry relative="1" as="geometry"/>
                </mxCell>
                <mxCell id="3" value="inicio" style="ellipse;whiteSpace=wrap;html=1;fillColor=#CC0066;" vertex="1" parent="1">
                    <mxGeometry x="380" y="30" width="90" height="60" as="geometry"/>
                </mxCell>
                <mxCell id="7" value="" style="edgeStyle=none;html=1;" edge="1" parent="1" source="4" target="6">
                    <mxGeometry relative="1" as="geometry"/>
                </mxCell>
                <mxCell id="4" value="salario_emp" style="whiteSpace=wrap;html=1;fillColor=#FF8000;" vertex="1" parent="1">
                    <mxGeometry x="367.5" y="120" width="115" height="40" as="geometry"/>
                </mxCell>
                <mxCell id="9" value="" style="edgeStyle=none;html=1;" edge="1" parent="1" source="6" target="8">
                    <mxGeometry relative="1" as="geometry"/>
                </mxCell>
                <mxCell id="6" value="deudas" style="whiteSpace=wrap;html=1;fillColor=#00FF00;" vertex="1" parent="1">
                    <mxGeometry x="367.5" y="190" width="115" height="40" as="geometry"/>
                </mxCell>
                <mxCell id="11" value="" style="edgeStyle=none;html=1;" edge="1" parent="1" source="8" target="10">
                    <mxGeometry relative="1" as="geometry">
                        <Array as="points">
                            <mxPoint x="558" y="280"/>
                        </Array>
                    </mxGeometry>
                </mxCell>
                <mxCell id="18" value="" style="edgeStyle=none;html=1;" edge="1" parent="1" source="8" target="17">
                    <mxGeometry relative="1" as="geometry">
                        <Array as="points">
                            <mxPoint x="220" y="280"/>
                        </Array>
                    </mxGeometry>
                </mxCell>
                <mxCell id="26" style="edgeStyle=none;html=1;" edge="1" parent="1">
                    <mxGeometry relative="1" as="geometry">
                        <mxPoint x="500" y="285" as="targetPoint"/>
                        <mxPoint x="500" y="290" as="sourcePoint"/>
                    </mxGeometry>
                </mxCell>
                <mxCell id="8" value="salario_emp&amp;gt;=945200" style="rhombus;whiteSpace=wrap;html=1;fillColor=#0066CC;" vertex="1" parent="1">
                    <mxGeometry x="340" y="250" width="150" height="70" as="geometry"/>
                </mxCell>
                <mxCell id="14" value="" style="edgeStyle=none;html=1;exitX=0.084;exitY=0.567;exitDx=0;exitDy=0;exitPerimeter=0;" edge="1" parent="1" source="10" target="13">
                    <mxGeometry relative="1" as="geometry">
                        <mxPoint x="480" y="370" as="sourcePoint"/>
                        <Array as="points">
                            <mxPoint x="450" y="344"/>
                        </Array>
                    </mxGeometry>
                </mxCell>
                <mxCell id="16" value="" style="edgeStyle=none;html=1;" edge="1" parent="1" source="10" target="15">
                    <mxGeometry relative="1" as="geometry">
                        <Array as="points">
                            <mxPoint x="670" y="340"/>
                        </Array>
                    </mxGeometry>
                </mxCell>
                <mxCell id="10" value="deudas==no" style="rhombus;whiteSpace=wrap;html=1;fillColor=#330066;" vertex="1" parent="1">
                    <mxGeometry x="510" y="310" width="95" height="60" as="geometry"/>
                </mxCell>
                <mxCell id="22" value="" style="edgeStyle=none;html=1;entryX=0.5;entryY=0;entryDx=0;entryDy=0;" edge="1" parent="1" source="13" target="19">
                    <mxGeometry relative="1" as="geometry">
                        <mxPoint x="550" y="550" as="targetPoint"/>
                        <Array as="points">
                            <mxPoint x="450" y="480"/>
                            <mxPoint x="560" y="480"/>
                            <mxPoint x="560" y="560"/>
                        </Array>
                    </mxGeometry>
                </mxCell>
                <mxCell id="13" value="rta:&quot;RECHAZADA&quot;" style="rounded=0;whiteSpace=wrap;html=1;fillColor=#990000;" vertex="1" parent="1">
                    <mxGeometry x="390" y="390" width="120" height="50" as="geometry"/>
                </mxCell>
                <mxCell id="23" style="edgeStyle=none;html=1;entryX=0.5;entryY=0;entryDx=0;entryDy=0;" edge="1" parent="1" source="15" target="19">
                    <mxGeometry relative="1" as="geometry">
                        <mxPoint x="667.5" y="460" as="targetPoint"/>
                        <Array as="points">
                            <mxPoint x="670" y="480"/>
                            <mxPoint x="560" y="480"/>
                            <mxPoint x="560" y="560"/>
                        </Array>
                    </mxGeometry>
                </mxCell>
                <mxCell id="15" value="rta:&quot;APROBADA&quot;" style="whiteSpace=wrap;html=1;fillColor=#FF6666;" vertex="1" parent="1">
                    <mxGeometry x="610" y="390" width="115" height="50" as="geometry"/>
                </mxCell>
                <mxCell id="25" value="" style="edgeStyle=none;html=1;entryX=0.5;entryY=0;entryDx=0;entryDy=0;" edge="1" parent="1" source="17" target="19">
                    <mxGeometry relative="1" as="geometry">
                        <mxPoint x="220" y="475" as="targetPoint"/>
                        <Array as="points">
                            <mxPoint x="220" y="560"/>
                        </Array>
                    </mxGeometry>
                </mxCell>
                <mxCell id="17" value="rta:&quot;REHAZADA&quot;" style="whiteSpace=wrap;html=1;fillColor=#00994D;" vertex="1" parent="1">
                    <mxGeometry x="160" y="320" width="120" height="50" as="geometry"/>
                </mxCell>
                <mxCell id="21" value="" style="edgeStyle=none;html=1;" edge="1" parent="1" source="19" target="20">
                    <mxGeometry relative="1" as="geometry"/>
                </mxCell>
                <mxCell id="19" value="RTA" style="rounded=1;whiteSpace=wrap;html=1;fillColor=#4C0099;" vertex="1" parent="1">
                    <mxGeometry x="340" y="560" width="120" height="60" as="geometry"/>
                </mxCell>
                <mxCell id="20" value="fin" style="ellipse;whiteSpace=wrap;html=1;fillColor=#003333;" vertex="1" parent="1">
                    <mxGeometry x="340" y="650" width="130" height="40" as="geometry"/>
                </mxCell>
            </root>
        </mxGraphModel>
    </diagram>
</mxfile>